<mxfile host="app.diagrams.net" agent="Mozilla/5.0 (Windows NT 10.0; Win64; x64) AppleWebKit/537.36 (KHTML, like Gecko) Chrome/129.0.0.0 Safari/537.36" version="24.7.17">
  <diagram name="Page-1" id="NUJQiAEauW-dd4RwxvM8">
    <mxGraphModel dx="1050" dy="557" grid="1" gridSize="10" guides="1" tooltips="1" connect="1" arrows="1" fold="1" page="1" pageScale="1" pageWidth="850" pageHeight="1100" math="0" shadow="0">
      <root>
        <mxCell id="0" />
        <mxCell id="1" parent="0" />
        <mxCell id="D9Knp_aqtD7wAirKy7gn-11" style="edgeStyle=orthogonalEdgeStyle;rounded=0;orthogonalLoop=1;jettySize=auto;html=1;exitX=1;exitY=0.5;exitDx=0;exitDy=0;entryX=0;entryY=0.5;entryDx=0;entryDy=0;" parent="1" source="D9Knp_aqtD7wAirKy7gn-1" target="D9Knp_aqtD7wAirKy7gn-9" edge="1">
          <mxGeometry relative="1" as="geometry" />
        </mxCell>
        <mxCell id="D9Knp_aqtD7wAirKy7gn-1" value="TO DO" style="rounded=1;whiteSpace=wrap;html=1;" parent="1" vertex="1">
          <mxGeometry x="200" y="100" width="110" height="40" as="geometry" />
        </mxCell>
        <mxCell id="D9Knp_aqtD7wAirKy7gn-2" style="edgeStyle=orthogonalEdgeStyle;rounded=0;orthogonalLoop=1;jettySize=auto;html=1;exitX=1;exitY=1;exitDx=0;exitDy=0;" parent="1" source="D9Knp_aqtD7wAirKy7gn-1" target="D9Knp_aqtD7wAirKy7gn-1" edge="1">
          <mxGeometry relative="1" as="geometry">
            <Array as="points">
              <mxPoint x="310" y="130" />
              <mxPoint x="310" y="130" />
            </Array>
          </mxGeometry>
        </mxCell>
        <mxCell id="D9Knp_aqtD7wAirKy7gn-5" value="DEPLOYMENT" style="rounded=1;whiteSpace=wrap;html=1;" parent="1" vertex="1">
          <mxGeometry x="460" y="330" width="110" height="40" as="geometry" />
        </mxCell>
        <mxCell id="D9Knp_aqtD7wAirKy7gn-6" value="DONE" style="rounded=1;whiteSpace=wrap;html=1;" parent="1" vertex="1">
          <mxGeometry x="470" y="430" width="100" height="40" as="geometry" />
        </mxCell>
        <mxCell id="D9Knp_aqtD7wAirKy7gn-16" style="edgeStyle=orthogonalEdgeStyle;rounded=0;orthogonalLoop=1;jettySize=auto;html=1;entryX=0.5;entryY=1;entryDx=0;entryDy=0;" parent="1" source="D9Knp_aqtD7wAirKy7gn-7" target="D9Knp_aqtD7wAirKy7gn-1" edge="1">
          <mxGeometry relative="1" as="geometry" />
        </mxCell>
        <mxCell id="D9Knp_aqtD7wAirKy7gn-7" value="MAINTENANCE" style="rounded=1;whiteSpace=wrap;html=1;" parent="1" vertex="1">
          <mxGeometry x="200" y="340" width="120" height="40" as="geometry" />
        </mxCell>
        <mxCell id="D9Knp_aqtD7wAirKy7gn-19" style="edgeStyle=orthogonalEdgeStyle;rounded=0;orthogonalLoop=1;jettySize=auto;html=1;entryX=0;entryY=0.5;entryDx=0;entryDy=0;" parent="1" source="D9Knp_aqtD7wAirKy7gn-9" target="D9Knp_aqtD7wAirKy7gn-17" edge="1">
          <mxGeometry relative="1" as="geometry" />
        </mxCell>
        <mxCell id="D9Knp_aqtD7wAirKy7gn-9" value="IN PROGRESS" style="rounded=1;whiteSpace=wrap;html=1;" parent="1" vertex="1">
          <mxGeometry x="470" y="110" width="110" height="40" as="geometry" />
        </mxCell>
        <mxCell id="D9Knp_aqtD7wAirKy7gn-14" style="edgeStyle=orthogonalEdgeStyle;rounded=0;orthogonalLoop=1;jettySize=auto;html=1;exitX=0.5;exitY=1;exitDx=0;exitDy=0;entryX=0.432;entryY=0.115;entryDx=0;entryDy=0;entryPerimeter=0;" parent="1" source="D9Knp_aqtD7wAirKy7gn-5" target="D9Knp_aqtD7wAirKy7gn-6" edge="1">
          <mxGeometry relative="1" as="geometry" />
        </mxCell>
        <mxCell id="D9Knp_aqtD7wAirKy7gn-15" style="edgeStyle=orthogonalEdgeStyle;rounded=0;orthogonalLoop=1;jettySize=auto;html=1;exitX=0;exitY=0.5;exitDx=0;exitDy=0;entryX=0.577;entryY=1.057;entryDx=0;entryDy=0;entryPerimeter=0;" parent="1" source="D9Knp_aqtD7wAirKy7gn-6" target="D9Knp_aqtD7wAirKy7gn-7" edge="1">
          <mxGeometry relative="1" as="geometry" />
        </mxCell>
        <mxCell id="D9Knp_aqtD7wAirKy7gn-17" value="ON HOLD" style="rounded=1;whiteSpace=wrap;html=1;" parent="1" vertex="1">
          <mxGeometry x="640" y="110" width="120" height="40" as="geometry" />
        </mxCell>
        <mxCell id="D9Knp_aqtD7wAirKy7gn-24" style="edgeStyle=orthogonalEdgeStyle;rounded=0;orthogonalLoop=1;jettySize=auto;html=1;entryX=0.636;entryY=0;entryDx=0;entryDy=0;entryPerimeter=0;" parent="1" source="D9Knp_aqtD7wAirKy7gn-17" target="D9Knp_aqtD7wAirKy7gn-9" edge="1">
          <mxGeometry relative="1" as="geometry" />
        </mxCell>
        <mxCell id="D9Knp_aqtD7wAirKy7gn-27" style="edgeStyle=orthogonalEdgeStyle;rounded=0;orthogonalLoop=1;jettySize=auto;html=1;exitX=0.5;exitY=1;exitDx=0;exitDy=0;entryX=0.5;entryY=0;entryDx=0;entryDy=0;" parent="1" source="D9Knp_aqtD7wAirKy7gn-25" target="D9Knp_aqtD7wAirKy7gn-5" edge="1">
          <mxGeometry relative="1" as="geometry" />
        </mxCell>
        <mxCell id="D9Knp_aqtD7wAirKy7gn-25" value="TESTING" style="rounded=1;whiteSpace=wrap;html=1;" parent="1" vertex="1">
          <mxGeometry x="460" y="220" width="110" height="50" as="geometry" />
        </mxCell>
        <mxCell id="D9Knp_aqtD7wAirKy7gn-26" style="edgeStyle=orthogonalEdgeStyle;rounded=0;orthogonalLoop=1;jettySize=auto;html=1;exitX=0.5;exitY=1;exitDx=0;exitDy=0;entryX=0.615;entryY=-0.012;entryDx=0;entryDy=0;entryPerimeter=0;" parent="1" source="D9Knp_aqtD7wAirKy7gn-9" target="D9Knp_aqtD7wAirKy7gn-25" edge="1">
          <mxGeometry relative="1" as="geometry" />
        </mxCell>
      </root>
    </mxGraphModel>
  </diagram>
</mxfile>
